HIERARCHY
ROOT RootJoint
{
    OFFSET   0.000000   0.000000   0.000000
    CHANNELS 6 Xposition Yposition Zposition Xrotation Yrotation Zrotation
    JOINT pelvis_lowerback
    {
        OFFSET   0.000000   0.093605   0.000000
        CHANNELS 3 Xrotation Yrotation Zrotation
        JOINT lowerback_torso
        {
            OFFSET   0.000000   0.100000   0.000000
            CHANNELS 3 Xrotation Yrotation Zrotation
            JOINT torso_head
            {
                OFFSET   0.000000   0.282350   0.000000
                CHANNELS 3 Xrotation Yrotation Zrotation
                End Site
                {
                    OFFSET   0.000000   0.192650   0.000000
                }
            }
            JOINT rTorso_Clavicle
            {
                OFFSET  -0.001000   0.157500   0.000000
                CHANNELS 3 Xrotation Yrotation Zrotation
                JOINT rShoulder
                {
                    OFFSET  -0.117647   0.000000   0.000000
                    CHANNELS 3 Xrotation Yrotation Zrotation
                    JOINT rElbow
                    {
                        OFFSET  -0.245000   0.000000   0.000000
                        CHANNELS 3 Xrotation Yrotation Zrotation
                        JOINT rWrist
                        {
                            OFFSET  -0.240000   0.000000   0.000000
                            CHANNELS 3 Xrotation Yrotation Zrotation
                            End Site
                            {
                                OFFSET  -0.116353  -0.002500   0.000000
                            }
                        }
                    }
                }
            }
            JOINT lTorso_Clavicle
            {
                OFFSET   0.001000   0.157500   0.000000
                CHANNELS 3 Xrotation Yrotation Zrotation
                JOINT lShoulder
                {
                    OFFSET   0.117647   0.000000   0.000000
                    CHANNELS 3 Xrotation Yrotation Zrotation
                    JOINT lElbow
                    {
                        OFFSET   0.245000   0.000000   0.000000
                        CHANNELS 3 Xrotation Yrotation Zrotation
                        JOINT lWrist
                        {
                            OFFSET   0.240000   0.000000   0.000000
                            CHANNELS 3 Xrotation Yrotation Zrotation
                            End Site
                            {
                                OFFSET   0.116353  -0.002500   0.000000
                            }
                        }
                    }
                }
            }
        }
    }
    JOINT rHip
    {
        OFFSET  -0.100000  -0.051395   0.000000
        CHANNELS 3 Xrotation Yrotation Zrotation
        JOINT rKnee
        {
            OFFSET   0.000000  -0.410000   0.000000
            CHANNELS 3 Xrotation Yrotation Zrotation
            JOINT rAnkle
            {
                OFFSET   0.000000  -0.390000   0.000000
                CHANNELS 3 Xrotation Yrotation Zrotation
                JOINT rToeJoint
                {
                    OFFSET   0.000000  -0.050000   0.130000
                    CHANNELS 3 Xrotation Yrotation Zrotation
                    End Site
                    {
                        OFFSET  -0.010000   0.002000   0.060000
                    }
                }
            }
        }
    }
    JOINT lHip
    {
        OFFSET   0.100000  -0.051395   0.000000
        CHANNELS 3 Xrotation Yrotation Zrotation
        JOINT lKnee
        {
            OFFSET   0.000000  -0.410000   0.000000
            CHANNELS 3 Xrotation Yrotation Zrotation
            JOINT lAnkle
            {
                OFFSET   0.000000  -0.390000   0.000000
                CHANNELS 3 Xrotation Yrotation Zrotation
                JOINT lToeJoint
                {
                    OFFSET   0.000000  -0.050000   0.130000
                    CHANNELS 3 Xrotation Yrotation Zrotation
                    End Site
                    {
                        OFFSET   0.010000   0.002000   0.060000
                    }
                }
            }
        }
    }
}
MOTION
Frames: 5
Frame Time:   0.008333
 -1.888826   0.860930   4.228621 -10.799219  34.390347   3.131623  14.359433  -0.646990  -0.888941   0.063930   0.610447  -0.192151   1.466651   9.074363  -2.422961  -3.776287  27.704612  -4.655736 -39.503483  45.519338  46.973711  -0.003299  71.647930   0.003610  -4.263272   0.277207  -4.744886  -2.395677 -30.303649   0.370324 -11.041358 -35.969807 -43.314053  -0.062967 -76.190302  -0.077211  -3.627625  -7.796528   1.800919 -32.798720  -1.620412  -4.708824  66.954607  -0.029826  -0.089881  -5.848549  -2.634954   4.445440  -2.502087   0.002129   0.029020  -9.849588  -3.915175   3.443887  46.428293  -0.002109  -0.008673 -27.763888   1.020334   2.865480   0.121792  -0.000864   0.000116
 -1.886925   0.862276   4.236165 -10.776886  36.241524   3.139829  14.220670  -0.784865  -0.816826  -0.074572   0.583390  -0.383326   1.372167   9.144849  -2.480490  -3.560081  27.529641  -5.010936 -39.256272  45.797335  46.907716   0.005024  71.837397  -0.004400  -4.289954   0.397661  -4.593688  -2.280443 -30.201925   0.219148 -10.562612 -36.152316 -44.021692  -0.065878 -76.605410  -0.081172  -3.558479  -7.988851   1.901422 -33.231847  -0.921779  -3.976309  64.414682  -0.048821  -0.128755  -5.506387  -1.632941   4.639105  -2.140193   0.003953   0.035343  -9.529635  -5.045192   3.678014  46.011299  -0.002014  -0.010003 -27.736918   0.199552   2.208013  -0.024013  -0.001152   0.000133
 -1.885075   0.863686   4.243865 -10.700810  38.224115   3.146901  14.050407  -0.918334  -0.765828  -0.211437   0.538581  -0.579368   1.260451   9.212799  -2.541140  -3.329012  27.300700  -5.355041 -38.964168  46.024153  46.807240   0.011230  72.010685  -0.010330  -4.319746   0.499054  -4.430689  -2.073792 -30.070001   0.084964 -10.045928 -36.315279 -44.708604  -0.068594 -76.986634  -0.084683  -3.497981  -8.150139   1.894792 -33.569476  -0.091137  -3.367741  61.756236  -0.065804  -0.166509  -5.196009  -0.693179   4.806950  -1.768752   0.006146   0.040992  -9.270759  -6.226381   3.918752  45.546517  -0.002026  -0.011740 -27.685946  -0.697523   1.591222  -0.155021  -0.001266   0.000138
 -1.883293   0.865047   4.251696 -10.608208  40.276655   3.150093  13.891810  -1.032482  -0.725345  -0.332154   0.501646  -0.771292   1.149863   9.277416  -2.600717  -3.111331  27.058316  -5.681146 -38.666889  46.218928  46.688176   0.015496  72.165282  -0.014375  -4.352312   0.554785  -4.275712  -1.836863 -29.919624  -0.032508  -9.526846 -36.457126 -45.349431  -0.071186 -77.333399  -0.087582  -3.442758  -8.254847   1.832432 -33.871114   0.739650  -2.869374  59.210749  -0.075651  -0.195440  -4.909829   0.183050   4.953177  -1.427756   0.007837   0.044313  -9.047496  -7.361863   4.193219  45.077795  -0.002212  -0.013600 -27.637887  -1.556839   1.011534  -0.275448  -0.001282  -0.000024
 -1.881573   0.866332   4.259661 -10.509845  42.372623   3.147476  13.755848  -1.123708  -0.692949  -0.433326   0.480226  -0.954186   1.045700   9.338489  -2.657250  -2.911009  26.819961  -5.986120 -38.379030  46.392341  46.563742   0.018332  72.305151  -0.017026  -4.385831   0.580055  -4.134409  -1.594361 -29.758815  -0.135202  -9.021130 -36.580497 -45.940861  -0.073577 -77.649630  -0.089851  -3.391207  -8.312025   1.756246 -34.151091   1.533576  -2.455587  56.828826  -0.079036  -0.215093  -4.643809   1.000945   5.081552  -1.118020   0.008917   0.045695  -8.849018  -8.433897   4.507310  44.616843  -0.002506  -0.015421 -27.599133  -2.355618   0.469842  -0.389449  -0.001235  -0.000316
